<svg xmlns="http://www.w3.org/2000/svg" width="532" height="409" viewBox="0 0 532 409" fill="none"><g clip-path="url(#clip0)"><path d="M481.9 402.2C537.1 360.1 561.8 243.5 472 186.3C412.6 148.4 375.6 170 308.8 145C227.2 114.5 215 22.1002 115.8 67.5002C63.1999 91.6002 26.7999 159.4 20.2999 236.5C14.0999 312 40.8999 363.8 95.4999 399.3C223.8 404.8 352.3 403.7 481.9 402.2Z" fill="url(#paint0_radial)"></path><path d="M20.4 236.5C26.8 159.4 63.2 91.4997 115.8 67.4998C174.4 40.6998 202.6 61.7997 232.6 89.9997C233.5 93.1997 234.2 96.5997 234.6 99.8997C234.6 100.2 234.8 101.7 234.9 101.9C235 102.6 235 103.3 235.1 104C235.2 105.7 235.3 107.4 235.3 109.1C235.3 110.7 235.3 112.3 235.2 113.9C235.1 114.7 235.1 115.5 235 116.3C235 116.4 235 116.4 235 116.5C234.1 119.9 233 124.2 231.9 126.2C228.8 132.3 226.3 135.4 221.2 140.2C216.6 144.7 211.5 148.6 206.5 152.6C195.4 161.6 186.5 171.6 179.5 184.2C172 197.8 168.2 212.9 169.6 228.5C171 245.3 175.9 261.3 179.7 277.7C181.7 286.1 183 294.6 182.8 303.3C182.7 306.8 182.5 307.8 181.4 311.6C181.3 311.9 181.1 312.3 181 312.6C180.8 312.9 180.9 312.9 181 312.6C181.1 312.4 181.2 312.2 181.4 312C181.1 312.5 181 313 180.6 313.5C180.2 314 178.9 315.8 179.5 315.2C178.7 316.1 177.9 316.9 177.1 317.7C176.8 318 175.1 319.4 175.2 319.3C172.8 321.1 170.4 322.7 168 324.4C162.1 328.4 156.2 332.4 150.8 337C138.4 347.5 130.4 363.3 139.2 378.8C142.8 385.1 149.3 389.3 155.2 393.1C158.3 395 161.3 396.8 164.4 398.7C165.8 399.6 167.2 400.5 168.5 401.4C168.7 401.6 168.8 401.6 168.8 401.7C168.9 401.8 169 401.9 169.1 402C169.2 402.1 169.3 402.2 169.4 402.3C144.8 401.7 120.1 400.9 95.5 399.9C40.9 363.8 14.1 312 20.4 236.5Z" fill="url(#paint1_linear)"></path><path d="M20.3999 236.5C26.7999 159.4 63.2 91.5004 115.8 67.5004C146.6 53.3004 169.1 52.5004 187.8 59.1004C187.7 59.2004 187.7 59.3004 187.6 59.4004C186 61.9004 186 61.8004 184.5 63.6004C180.9 67.5004 177.7 69.6004 173.1 72.1004C165.7 76.0004 157.5 78.4004 151.3 84.3004C142.7 92.5004 138.7 105.9 137.5 117.4C136.3 129.3 140.9 140.6 141.1 152.4C141.1 153.4 141 154.3 141 155.3C140.9 155.6 140.9 155.8 140.8 156.1C140.6 156.8 140.5 157.6 140.2 158.3C140.1 158.7 140 158.9 139.9 159.3C139.2 160.7 138.4 161.9 137.6 163.2C137.5 163.3 137.5 163.4 137.4 163.5C137.3 163.6 137.3 163.6 137.2 163.7C136.7 164.2 136.2 164.7 135.8 165.3C134.7 166.5 133.4 167.7 132.1 168.7C131.9 168.9 131.2 169.4 130.8 169.7C130.4 170 129.9 170.3 129.8 170.5C127.1 172.5 124.2 174.3 121.4 176.3C107.8 185.6 95.8999 196.2 94.3999 213.7C93.4999 224 96.3999 235.3 102.3 243.7C105.4 248.2 109 252.1 112.7 256C114.4 257.8 116.1 259.7 117.8 261.6C118.3 262.2 118.3 262.2 118.3 262.2C118.3 262.2 118.4 262.3 118.7 262.9C119.4 263.9 120.1 264.9 120.7 266C122 268.4 122.2 268.4 122.9 271.5C123.4 273.7 123.6 275.6 123.5 278C123.5 278.6 123.5 279.2 123.4 279.8C123.4 279.9 123.3 280.1 123.3 280.3C123 281.4 122.8 282.3 122.4 283.4C122.3 283.5 121.8 284.7 121.6 285.1C121.1 286.1 120.4 287.1 119.8 288.1C119.7 288.2 119.4 288.7 119.2 289C119 289.3 118.7 289.6 118.7 289.6C117.9 290.5 117.1 291.4 116.3 292.3C114.7 294 113.2 295.6 111.6 297.3C107.8 301.4 104.3 305.8 101.3 310.5C95.2 320.2 91.2 331.8 95.8999 343C99.5999 351.7 107.3 357.4 114.4 363.3C118.2 366.4 122 369.7 125.4 373.4C125.7 373.8 126.7 375 126.8 375C127.1 375.5 127.6 376 127.9 376.6C129.2 378.5 130.4 380.5 131.5 382.6C134.6 388.4 137.4 394.5 139.1 401.1C124.6 400.7 110.1 400.1 95.5999 399.5C40.8999 363.8 14.0999 312 20.3999 236.5Z" fill="url(#paint2_linear)"></path><path d="M481.901 402.2C466.901 402.4 451.801 402.6 436.901 402.7C436.601 402.3 436.301 402 436.001 401.7C435.801 401.5 434.701 400 434.501 399.9C434.201 399.4 433.701 398.9 433.401 398.4C429.501 393.1 425.701 387.6 422.401 381.8C420.901 379.2 419.501 376.6 418.201 373.9C417.801 373.1 417.501 372.3 417.201 371.6C417.101 371.4 416.4 369.7 416.3 369.2C414.3 363.5 413.601 357.4 413.901 351.4C414.201 344.2 416.5 338.1 420.3 331.6C424.8 323.8 431.201 316.9 435.201 308.9C439.601 300.2 440.401 290.8 437.701 281.4C435.401 273.4 431.401 265.8 429.201 257.8C428.801 256.1 427.501 253.1 427.601 251.1C427.601 251.9 427.801 252.8 427.901 251.8C427.901 251.3 427.8 250.7 427.8 250.2C427.7 248.3 427.801 246.3 427.901 244.3C428.001 243 428.101 241.7 428.201 240.5C428.301 240 428.601 237.3 428.601 238C428.901 236 429.201 233.9 429.601 231.9C430.601 226.3 431.701 220.6 432.701 215C434.801 203.4 436.901 191.5 436.501 179.7C436.401 176.1 436 172.5 435.3 169C446.9 172.7 459 178.2 472.3 186.6C561.801 243.5 537.101 360.1 481.901 402.2Z" fill="url(#paint3_radial)"></path><path d="M258.1 47.1999C249.7 80.7999 280.7 114 313.4 127.8C346.1 141.6 383.5 140 418.5 133.4C433.6 130.6 449.1 126.6 460.8 117C472.5 107.4 479.3 90.6999 472.9 77.0999C467.2 65.1999 453.4 59.0999 440.2 55.8999C427 52.7999 413 51.4999 401.3 44.8999C390.2 38.5999 382.3 28.2999 372.6 20.0999C354.8 4.79989 329.8 -2.60011 306.5 2.09989C283.3 6.89989 265.2 18.6999 258.1 47.1999Z" fill="url(#paint4_linear)"></path><path d="M258.1 47.2006C265.2 18.7006 283.3 6.90061 306.5 2.10061C324.1 -1.49939 342.6 1.80061 358.4 10.2006C358.2 10.7006 358.1 11.2006 358 11.7006C357.9 12.0006 357.7 12.3006 357.7 12.6006C357.6 12.7006 357.5 13.0006 357.4 13.2006C357.1 13.6006 356.9 14.2006 356.6 14.7006C356.2 15.4006 355.7 16.1006 355.3 16.8006C355.2 16.9006 355.2 17.0006 355.2 17.0006L355.1 17.1006C352.3 19.7006 349.6 22.0006 346.4 24.2006C331.5 34.4006 315.1 44.5006 312.9 64.2006C311.4 77.3006 319.2 88.0006 327.1 97.5006C328.8 99.5006 330.5 101.601 332.2 103.701C332.4 103.901 333.3 105.301 333.7 105.701C334.3 106.701 335 107.601 335.5 108.601C335.9 109.401 336.4 110.201 336.7 111.001C337.1 112.101 337.3 113.201 337.7 114.201C337.7 114.801 337.7 115.401 337.7 116.001C337.7 116.201 337.7 116.401 337.7 116.501C337.7 116.701 337.7 116.801 337.7 117.001C337.6 117.401 337.5 117.901 337.4 117.901C337.3 118.101 337.3 118.201 337.3 118.201C337.2 118.401 337.1 118.501 337 118.501C336 119.601 335.1 120.501 333.9 121.401C333.8 121.501 333.8 121.501 333.7 121.501C333.5 121.601 333.4 121.801 333.1 121.901C332.5 122.301 331.9 122.701 331.4 123.101C329.8 124.101 328.3 125.001 326.6 125.901C324 127.301 321.4 128.501 318.8 129.601C317 128.901 315.1 128.201 313.4 127.501C280.7 113.901 249.7 80.8006 258.1 47.2006Z" fill="url(#paint5_linear)"></path><path d="M396.1 132.7C396.2 133.6 396.1 130.8 396.1 130.3C396.1 128.5 396.1 129.2 396.4 127.9C396.7 126.8 396.9 125.6 397.3 124.5C397.4 124.2 398.1 122.3 398 122.5C400 118 402.9 113.7 405.9 110C412.6 101.9 421.1 95.3002 427.8 87.3002C435.4 78.2002 437.6 66.7002 436.6 55.2002C437.8 55.5002 439 55.7002 440.3 56.0002C453.5 59.1002 467.3 65.3002 473 77.2002C479.5 90.7002 472.6 107.5 460.9 117.1C449.2 126.7 433.6 130.7 418.5 133.5C411.4 134.8 404.2 135.9 396.9 136.8C396.5 135.5 396.4 134.2 396.1 132.7Z" fill="url(#paint6_linear)"></path><path d="M301.199 319.3C301.199 319.3 298.199 346.7 294.899 348.9C288.999 352.8 219.699 361.9 219.699 361.9L221.999 379.9C221.999 379.9 316.699 388.4 320.799 383.7C327.799 375.5 339.999 335.8 339.999 335.8L301.199 319.3Z" fill="url(#paint7_linear)"></path><path d="M346.901 248.7L339.201 230.3C339.201 230.3 318.401 240.1 311.601 252.1C304.301 265 295.301 333.6 295.301 333.6C295.301 333.6 331.901 342.1 338.701 338.5C345.401 334.9 346.901 248.7 346.901 248.7Z" fill="#52CC8F"></path><path d="M405.2 163.4C414.7 159.3 430.6 157.4 435.5 168.7C437.2 186.3 445.9 184.1 460.3 184.6C472.3 186.2 480.8 199.2 476.9 210C475.3 214.3 472.1 218.3 472.9 222.8C473.7 227.5 478.7 230.7 480.7 235C486 249.4 467.9 257.7 455.7 258.4C438.1 261.4 415.3 260.3 404.8 244.1C400 230.9 389.6 226.4 377.8 220.1C370 215 364.4 205.1 369 197.4C373.4 190 384.8 188.3 389.4 181C393.8 171.9 391.2 167.4 405.2 163.4Z" fill="#0A2240"></path><path d="M403.5 170.701C411.9 167.101 425.9 165.401 430.2 175.401C431.7 191.001 439.4 189.001 452.1 189.401C462.7 190.801 470.2 202.301 466.7 211.801C465.3 215.601 462.5 219.101 463.2 223.101" stroke="url(#paint8_linear)" stroke-miterlimit="10"></path><path d="M400.5 178.701C408.9 175.101 422.9 173.401 427.2 183.401C428.7 199.001 436.4 197.001 449.1 197.401" stroke="url(#paint9_linear)" stroke-miterlimit="10"></path><path d="M373.9 254.3C372.6 255.9 370.9 257.5 368.7 257.7C366.3 257.9 364.4 256.2 362.9 254.6C355.1 246.4 350.1 236.3 348 225.9C349.9 224.8 354.2 223.3 355.9 222.4C357.5 221.4 358.3 220.9 359 219.3C359.4 218.2 359 215.4 358.9 214.2C357.9 204 355.3 199.5 351.7 189.1C368.8 185.3 384.9 180.6 394.3 172.9C395.4 177.7 396.7 187.1 399.6 196.3C402.7 206.1 407.4 215.8 415.4 220C399.6 229.4 385.5 241 373.9 254.3Z" fill="white"></path><path d="M329.199 364.2C331.499 379.1 315.499 395 314.999 403C348.999 403 419.999 405.1 456.299 400.1C457.999 390.9 439.999 370.4 439.999 350.1C439.999 347.4 440.099 344.5 440.399 341.3C440.999 332.2 442.299 321.4 443.799 310.4C447.799 280.7 453.199 249 449.199 242.4C441.399 229.5 423.199 220.9 414.199 217.1C411.099 215.8 408.999 215.1 408.999 215C397.699 234.3 374.699 250.8 365.999 250.1C363.599 249.9 356.399 247.4 351.699 223.6C349.899 224.6 347.999 225.6 346.199 226.6C337.199 231.3 328.799 235.2 326.399 241.2C319.999 257 313.699 297 315.099 311.3C316.499 325.6 322.299 336.6 326.299 351C327.299 354.4 328.099 357.9 328.799 361.8C328.999 362.3 329.099 363.2 329.199 364.2Z" fill="#52CC8F"></path><path d="M440.099 350C440.099 347.3 440.199 344.4 440.399 341.2C440.999 332.1 442.299 321.3 443.799 310.3C447.799 280.6 453.199 248.9 449.199 242.3C441.399 229.4 423.199 220.8 414.199 217C411.099 215.7 408.999 215 408.999 214.9C397.699 234.2 374.699 250.7 365.999 250C363.599 249.8 356.399 247.3 351.699 223.5C349.899 224.5 347.999 225.5 346.199 226.5C342.799 228.3 339.399 230 336.499 231.7C330.699 234.8 316.799 242.8 311.499 252.1C304.199 265 295.199 333.6 295.199 333.6C295.199 333.6 309.799 337 322.299 338.6C323.699 342.5 324.999 346.6 326.299 351C327.299 354.4 328.099 357.9 328.799 361.8C328.899 362.5 328.999 363.4 329.099 364.3C331.399 379.2 315.399 395.1 314.899 403.1C348.899 403.1 419.899 405.2 456.199 400.2C457.999 390.9 440.099 370.3 440.099 350Z" fill="url(#paint10_radial)"></path><path d="M366.1 250C363.7 249.8 356.5 247.3 351.8 223.5C350 224.5 348.1 225.5 346.3 226.5C342.9 228.3 339.5 230 336.6 231.7C330.8 234.8 316.9 242.8 311.6 252.1" stroke="#041836" stroke-width="2" stroke-linecap="round" stroke-linejoin="round"></path><path d="M401.6 225.5C400.5 226.8 399.4 228.1 398.3 229.3C396.8 230.9 390.6 236.7 389.1 238" stroke="#041836" stroke-width="2" stroke-linecap="round" stroke-linejoin="round"></path><path d="M326.5 249C319.8 263.7 313.2 300.9 314.7 314.1C316.2 327.4 322.2 337.6 326.4 351" stroke="#0A2240" stroke-width="2" stroke-miterlimit="10" stroke-linecap="round"></path><path d="M315.1 402.8C349.1 402.8 420.1 404.9 456.4 399.9C458.1 390.7 440.1 370.2 440.1 349.9C440.1 347.2 440.2 344.3 440.5 341.1C441.1 332 442.4 321.2 443.9 310.2C437.4 317 428.1 288.3 424 296.7C401.5 342 383.9 353.9 353.1 353.9C343.9 353.9 335.4 352.6 326.4 350.6C327.4 354 328.2 357.5 328.9 361.4C329.1 362.3 329.2 363.2 329.3 364.1C331.4 379 315.4 395 315.1 402.8Z" fill="url(#paint11_linear)"></path><path d="M339.2 386.9L339.4 398.7L127.9 400L127.5 386.5L339.2 386.9Z" fill="#325F73"></path><path d="M36.3008 281.3L41.0008 276.5L195.001 275.5L272.301 387.4L268.301 390.6L36.3008 281.3Z" fill="#041836"></path><path d="M192.001 279.7L268.201 390.6L122.601 391.3L36.3008 281.3L192.001 279.7Z" fill="url(#paint12_radial)"></path><path d="M328.8 196.7C337.3 195.1 342.2 183.4 339.8 170.5C337.4 157.6 328.6 148.5 320.1 150.1C311.6 151.7 306.7 163.4 309.1 176.3C311.4 189.2 320.3 198.3 328.8 196.7Z" fill="url(#paint13_linear)"></path><path d="M305.3 135.4C306.9 146.6 314.2 162.7 321.5 176.3C324 165.1 323.4 147.8 325.7 134.1C328 120.4 330.9 106.8 336 95.6004C337.1 93.2004 338.4 90.8004 339.8 88.6004C336.8 88.3004 333.8 88.6004 330.8 89.4004C326.3 90.6004 322 93.0004 318.6 96.1004C312.8 101.3 308.9 108.3 306.6 115.7C304.6 121.8 304.3 128.4 305.3 135.4Z" fill="#041836"></path><path d="M317.3 158.8C320.4 173.3 335.9 216.9 362 216.4C369 216.3 369.4 215.1 375.3 212C377.5 210.8 379.7 209.4 381.7 207.9C399.6 194.3 410.2 167.3 410.2 141.7C410.2 106 388.4 80.0998 362.7 83.1998C347.9 84.8998 337.2 89.7998 329.5 96.8998C324.4 101.7 320.8 107.5 318.3 114C315.5 121.5 313 138.3 317.3 158.8Z" fill="white"></path><path d="M318.4 114.1C320.8 107.5 324.5 101.8 329.6 96.9998C337.3 89.7998 348 84.8998 362.8 83.2998" stroke="#041836" stroke-width="2" stroke-linecap="round" stroke-linejoin="round"></path><path d="M318.199 167.9C334.599 206.4 345.199 213.2 355.799 214.9C367.599 216.8 376.399 216.2 388.999 204.4" stroke="#041836" stroke-width="2" stroke-linecap="round" stroke-linejoin="round"></path><path d="M309.1 124.6C313.6 128.4 319.2 131.6 325.6 134.1C343.7 141.4 367.2 143.8 385.5 142.9C394.5 162.7 398.2 169.8 400.4 187.1C409.2 178.9 416.4 163.7 418.5 151.8C420.6 140 420.4 127.5 417.1 115.8C411.9 97.4002 398.8 87.6002 389.7 82.8002C387.4 81.6002 385.4 80.7002 383.8 80.1002C372.2 75.6002 359.1 76.0002 347.2 79.7002C340.7 81.7002 335.2 85.1002 330.7 89.3002C321.4 97.7002 315.7 109.1 312 117.6C310.9 120.3 309.9 122.7 309.1 124.6Z" fill="#041836"></path><path d="M372.5 157.5C369.4 153.9 358.7 151 353.9 155.7" stroke="#0B2D50" stroke-width="3" stroke-miterlimit="10" stroke-linecap="round"></path><path d="M335.3 158.8C330.1 154.9 324.1 154.5 320.1 158.8" stroke="#0B2D50" stroke-width="3" stroke-miterlimit="10" stroke-linecap="round"></path><path d="M363.4 173.5C365 173.1 365.7 170.9 365.2 168.4C364.6 166 362.9 164.3 361.4 164.6C359.8 165 359.1 167.2 359.6 169.7C360.1 172.2 361.8 173.9 363.4 173.5Z" fill="#262D40"></path><path d="M330.4 174.8C332 174.5 332.8 172.2 332.2 169.7C331.7 167.2 329.9 165.5 328.4 165.9C326.8 166.2 326 168.5 326.6 171C327.1 173.4 328.8 175.1 330.4 174.8Z" fill="#262D40"></path><path d="M348.701 195.2C347.501 195.3 346.901 196.7 347.601 197.6C347.601 197.6 347.601 197.7 347.701 197.7C349.201 199.7 351.701 202.4 355.101 203.5C356.601 203.9 358.101 204.1 359.801 203.9C365.001 203 366.301 198.2 366.501 194.6C366.601 193.9 366.601 193.2 366.501 192.7C366.501 191.6 365.301 190.8 364.301 191.3C358.801 193.6 352.201 194.7 348.701 195.2Z" fill="#041836"></path><path d="M355.1 203.4C356.6 203.8 358.1 204 359.8 203.8C365 202.9 366.3 198.1 366.5 194.5C364.1 194.8 361.6 195.7 359.6 197.3C357.6 198.7 356 200.9 355.1 203.4Z" fill="#EB5757"></path><path d="M400.499 151.4C400.499 151.4 400.799 134.3 393.699 117.5C384.799 96.1997 366.699 87.0997 349.099 86.4997C327.999 85.6997 314.699 99.9997 314.699 99.9997C314.699 99.9997 321.599 87.7997 335.099 84.2997C343.999 81.9997 357.499 81.6997 368.299 85.9997C379.399 90.4997 393.299 103.1 398.399 116.4C403.399 129.7 405.799 150.3 405.799 150.3L400.499 151.4Z" fill="url(#paint14_linear)"></path><path d="M419.8 172.5C421.2 158.8 415 146.8 406 145.9C397 145 388.4 155.3 387 169.1C385.6 182.8 391.8 194.8 400.8 195.7C409.9 196.6 418.4 186.2 419.8 172.5Z" fill="url(#paint15_linear)"></path><path d="M410.6 154C404.7 153.1 398.7 160.7 397.2 171.1C395.6 181.4 399.1 190.4 405 191.3C410.9 192.2 416.9 184.6 418.4 174.2C419.9 163.9 416.5 154.9 410.6 154Z" fill="url(#paint16_linear)"></path><path d="M348.999 215.4C353.899 215.4 357.799 212.9 357.799 209.9C357.799 206.9 353.799 204.4 348.999 204.4C344.099 204.4 340.199 206.9 340.199 209.9C340.199 213 344.099 215.4 348.999 215.4Z" fill="#041836"></path><path d="M393.101 191.601C393.101 191.601 380.201 208.201 357.801 209.901" stroke="#041836" stroke-width="2" stroke-miterlimit="10" stroke-linecap="round"></path><path d="M410.2 300C410.2 300 410.2 328.3 408.6 344.5C408.2 349 407.6 352.7 406.9 354.5C411.2 363 413.4 372.8 413.8 382.3C414 386.1 412.8 387.8 412 391.8C421 392.9 429.9 394.1 433.1 392.2C439.5 388.5 444.5 369.6 448.9 349.9C453.5 329.3 456.5 309.1 456.5 309.1L410.2 300Z" fill="white"></path><path d="M408.6 344.6C417 347.3 433.2 351.5 448.8 349.8C453.4 329.2 456.4 309 456.4 309L410.2 299.9C410.2 300 410.2 328.3 408.6 344.6Z" fill="url(#paint17_linear)"></path><path d="M304.8 383.201C304.4 378.501 304.8 373.701 306 369.101" stroke="#041836" stroke-miterlimit="10" stroke-linecap="round"></path><path d="M415.401 254.3C418.701 244.9 431.001 225.5 431.001 225.5C431.001 225.5 449.801 233.3 456.401 246.6C467.701 269.1 461.901 333.5 461.901 333.5C446.701 339.9 416.301 340 403.301 338.1C403.301 338 408.701 273.2 415.401 254.3Z" fill="#52CC8F"></path><path d="M413.001 258.2C407.801 282.7 405.101 305.5 404.301 327.9" stroke="#0A2240" stroke-width="2" stroke-miterlimit="10" stroke-linecap="round"></path><path d="M506.7 397.2H47.9004V408.7H506.7V397.2Z" fill="#041836"></path><path d="M343.6 170.101C343.6 170.101 341.5 182.001 341.5 185.801C342.5 188.001 349.3 184.301 349.3 184.301" stroke="#041836" stroke-width="2" stroke-linecap="round"></path><path d="M165.1 335.2C162 328.3 154.4 323 148.1 323.2C145 323.3 142.7 324.7 141.7 327.1C138.7 325 135.2 323.7 132.1 323.8C125.8 324.1 123.1 329.8 126 336.8C128.3 342.1 132.2 346.7 135.1 349.9C136.6 351.6 138.1 352.8 139.1 353.7C139.5 354.1 140.1 354.5 140.4 354.8C140.6 354.9 140.7 355.1 140.8 355.1C140.8 355.1 140.8 355.1 141 355.2C143 356.9 145.5 356.9 146.5 355.4C147.4 353.9 146.4 351.2 144.3 349.5L144.1 349.4C143.9 349.3 143.7 349 143.2 348.6C142.4 347.9 141.3 346.9 140.1 345.7C137.7 343.2 135.1 339.9 133.6 336.5C132.7 334.1 133.6 332 135.9 331.9C138.2 331.8 140.9 333.7 142.1 336.3C142.3 336.9 142.8 337.6 143.2 338C144.4 339.5 146.3 340.6 147.9 340.6C150 340.5 150.8 338.6 149.9 336.5L149.7 335.9C148.8 333.5 149.7 331.4 152 331.3C154.3 331.2 157 333.1 158.2 335.6C159.4 338.3 159.7 340.9 159.8 343.1C159.8 344.1 159.7 345 159.7 345.6C159.7 345.9 159.6 346 159.6 346.2L159.5 346.3C159.7 345.3 160.5 344.7 161.8 344.6C163.9 344.5 166.3 346.3 167.3 348.4C167.7 349.3 167.7 350 167.6 350.6C167.6 350.6 167.6 350.6 167.5 350.5C167.5 350.5 167.6 350.4 167.5 350.2C167.5 349.9 167.6 349.6 167.6 349.2C167.7 348.5 167.8 347.3 167.7 345.9C167.4 343.6 167 339.7 165.1 335.2Z" fill="white"></path><path d="M162 344.399C160.8 344.399 160.1 345.099 159.7 346.099C159.5 346.799 159.6 347.699 160 348.699C161 350.999 163.4 352.599 165.5 352.499C166.7 352.499 167.6 351.799 167.8 350.799C167.7 350.699 167.9 350.699 167.8 350.499C167.9 349.899 167.8 348.999 167.5 348.299C166.5 346.199 164 344.399 162 344.399Z" fill="#B7E803"></path><path d="M16.5 129H235.5C241 129 245.5 133.5 245.5 139V181C245.5 186.5 241 191 235.5 191H16.5C11 191 6.5 186.5 6.5 181V139C6.5 133.5 11 129 16.5 129Z" fill="#041836"></path><path d="M16.4992 129.001L230.899 124.101C236.199 124.601 241.199 130.301 242.999 132.401C244.499 134.201 245.499 136.501 245.499 139.001V181.001C245.499 186.501 240.999 191.001 235.499 191.001H16.4992C13.6992 191.001 10.1992 189.901 8.39922 188.101C6.59922 186.301 2.19922 181.701 2.19922 181.701L6.49922 139.001C6.49922 133.501 10.9992 129.001 16.4992 129.001Z" fill="url(#paint18_radial)"></path><path d="M10.5 124H229.5C235 124 239.5 128.5 239.5 134V176C239.5 181.5 235 186 229.5 186H10.5C5 186 0.5 181.5 0.5 176V134C0.5 128.5 5 124 10.5 124Z" fill="url(#paint19_linear)"></path><path d="M205.8 139L200.6 149.9L189 151.7L197.4 160.2L195.4 172.1L205.8 166.5L216.1 172.1L214.1 160.2L222.5 151.7L210.9 149.9L205.8 139Z" fill="white"></path><path d="M163.4 139L158.2 149.9L146.6 151.7L155 160.2L153 172.1L163.3 166.5L173.7 172.1L171.7 160.2L180.1 151.7L168.5 149.9L163.4 139Z" fill="white"></path><path d="M121.101 139L115.901 149.9L104.301 151.7L112.701 160.2L110.701 172.1L121.001 166.5L131.401 172.1L129.401 160.2L137.801 151.7L126.201 149.9L121.101 139Z" fill="white"></path><path d="M84.4992 139L79.2992 149.9L67.6992 151.7L76.0992 160.2L74.0992 172.1L84.3992 166.5L94.7992 172.1L92.7992 160.2L101.199 151.7L89.5992 149.9L84.4992 139Z" fill="white"></path><path d="M42.2 139L37 149.9L25.5 151.6L33.9 160.1L31.9 172L42.3 166.4L52.6 172L50.6 160.1L59 151.6L47.4 149.8L42.2 139Z" fill="white"></path><path d="M248.2 212.601L176.5 215.201C174.3 215.201 172.5 217.001 172.5 219.201L170.1 251.201C170.1 251.201 171.6 252.401 173 253.301C173.9 253.901 175.4 254.701 176.6 254.701H192.5L197.7 262.401L202.9 254.701H251.5C253.7 254.701 255.5 252.901 255.5 250.701V219.201C255.5 218.101 255.1 217.101 254.3 216.401C253.6 215.701 249.3 212.601 248.2 212.601Z" fill="url(#paint20_radial)"></path><path d="M172.5 212.601H247.5C249.7 212.601 251.5 214.401 251.5 216.601V248.101C251.5 250.301 249.7 252.101 247.5 252.101H172.5C170.3 252.101 168.5 250.301 168.5 248.101V216.601C168.5 214.401 170.3 212.601 172.5 212.601Z" fill="#52CC8F"></path><path d="M172.5 212.601H247.5C249.7 212.601 251.5 214.401 251.5 216.601V248.101C251.5 250.301 249.7 252.101 247.5 252.101H172.5C170.3 252.101 168.5 250.301 168.5 248.101V216.601C168.5 214.401 170.3 212.601 172.5 212.601Z" fill="url(#paint21_radial)"></path><path d="M180.9 220.3H227.1C228.9 220.3 230.4 221.8 230.4 223.6C230.4 225.4 228.9 226.9 227.1 226.9H180.9C179.1 226.9 177.6 225.4 177.6 223.6C177.5 221.8 179 220.3 180.9 220.3Z" fill="white"></path><path d="M180.9 232.3H207.7C209.5 232.3 211 233.8 211 235.6C211 237.4 209.5 238.9 207.7 238.9H180.9C179.1 238.9 177.6 237.4 177.6 235.6C177.5 233.8 179 232.3 180.9 232.3Z" fill="white"></path><path d="M194.3 258.4L200.1 249.9H188.5L194.3 258.4Z" fill="#52CC8F"></path><path d="M285.4 367.8C285.6 368.3 286.1 368.7 286.8 368.7C291.2 368.5 299.2 366 307.3 353.4L317.7 361.1C318.2 361.5 318.9 361.6 319.5 361.4L337.1 355.4C338 355.1 338.1 353.8 337.2 353.4C334.7 352.2 329.9 350.9 323.7 353.1L321.7 351.1C321.7 351.1 334 351 338.6 343C338.6 343 410.9 407.9 432.2 393C432.9 392.5 433.4 392.1 433.9 391.6C447.2 378.9 416.8 357.7 405.2 350.3C402.6 348.7 399.9 347.3 397 346.2L330.7 321C329.5 320.6 328.2 320.6 327 320.8L315.9 323.1C313.4 323.6 311.3 325.3 310.2 327.6C306.2 336 295.7 356.6 285.7 366.4C285.2 366.7 285.2 367.3 285.4 367.8Z" fill="white"></path><path d="M352.301 329.1L330.801 320.9" stroke="#0A2240" stroke-width="1.5" stroke-miterlimit="10" stroke-linecap="round"></path><path d="M421.401 361.801C415.501 356.901 409.201 352.701 405.201 350.201C402.601 348.601 399.901 347.201 397.001 346.101L367.201 334.801" stroke="#0A2240" stroke-width="1.5" stroke-miterlimit="10" stroke-linecap="round"></path><path d="M289.9 361.701C291.8 359.201 293.7 356.601 295.6 354.001C297.4 351.401 299.1 348.701 300.8 346.001C302.5 343.301 304.2 340.601 305.7 337.801C307.2 335.001 308.5 332.101 309.7 329.101" stroke="#0A2240" stroke-width="1.5" stroke-miterlimit="10" stroke-linecap="round"></path><path d="M310.301 343.4C309.201 346.7 308.001 350 306.901 353.3L306.801 353.6L307.001 353.8L312.101 357.8C313.001 358.5 313.801 359.1 314.701 359.8C315.501 360.5 316.401 361.1 317.301 361.7L317.401 361.8H317.501C318.201 361.9 318.801 362 319.501 361.9C320.101 361.9 320.801 361.8 321.401 361.6C322.601 361.3 324.101 360.3 325.401 359.7" stroke="#041836" stroke-width="1.5" stroke-linecap="round" stroke-linejoin="round"></path><path d="M458.199 201.8C458.199 201.8 461.399 205 460.999 209.9" stroke="url(#paint22_linear)" stroke-miterlimit="10"></path><path d="M444.5 203.9C444.5 203.9 452.2 204.8 453.1 211.1" stroke="url(#paint23_linear)" stroke-miterlimit="10"></path><path d="M314.6 114.101C314.6 114.101 324.4 123.101 341.5 127.901C359.2 132.901 371 132.001 371 132.001" stroke="url(#paint24_linear)" stroke-miterlimit="10"></path><path d="M321.1 108.101C321.1 108.101 324 111.001 333.7 114.101" stroke="url(#paint25_linear)" stroke-miterlimit="10"></path></g><defs><radialGradient id="paint0_radial" cx="0" cy="0" r="1" gradientUnits="userSpaceOnUse" gradientTransform="translate(275.487 229.286) scale(218.918)"><stop stop-color="#A4E9D9" stop-opacity="0.5"></stop><stop offset="0.4009" stop-color="#81D7CC" stop-opacity="0.5"></stop><stop offset="0.7779" stop-color="#66C9C3" stop-opacity="0.38"></stop><stop offset="1" stop-color="#5CC4BF" stop-opacity="0.47"></stop></radialGradient><linearGradient id="paint1_linear" x1="65.0195" y1="356.473" x2="187.891" y2="111.983" gradientUnits="userSpaceOnUse"><stop stop-color="#A4E9D9" stop-opacity="0.21"></stop><stop offset="0.2656" stop-color="#81D7CC" stop-opacity="0.24"></stop><stop offset="0.5938" stop-color="#66C9C3" stop-opacity="0.37"></stop><stop offset="1" stop-color="#5CC4BF" stop-opacity="0.54"></stop></linearGradient><linearGradient id="paint2_linear" x1="42.5993" y1="347.659" x2="181.492" y2="131.481" gradientUnits="userSpaceOnUse"><stop stop-color="#A4E9D9" stop-opacity="0"></stop><stop offset="0.4009" stop-color="#81D7CC" stop-opacity="0.1203"></stop><stop offset="0.7779" stop-color="#66C9C3" stop-opacity="0.2334"></stop><stop offset="1" stop-color="#5CC4BF" stop-opacity="0.3"></stop></linearGradient><radialGradient id="paint3_radial" cx="0" cy="0" r="1" gradientUnits="userSpaceOnUse" gradientTransform="translate(512.29 356.661) scale(171.186 299.977)"><stop stop-color="#5CC4BF" stop-opacity="0.38"></stop><stop offset="0.2221" stop-color="#66C9C3" stop-opacity="0.37"></stop><stop offset="0.5991" stop-color="#81D7CC" stop-opacity="0.32"></stop><stop offset="1" stop-color="#A4E9D9" stop-opacity="0.3"></stop></radialGradient><linearGradient id="paint4_linear" x1="354.668" y1="130.466" x2="377.683" y2="13.4929" gradientUnits="userSpaceOnUse"><stop stop-color="#A4E9D9" stop-opacity="0"></stop><stop offset="0.4009" stop-color="#81D7CC" stop-opacity="0.1203"></stop><stop offset="0.7779" stop-color="#66C9C3" stop-opacity="0.2334"></stop><stop offset="1" stop-color="#5CC4BF" stop-opacity="0.3"></stop></linearGradient><linearGradient id="paint5_linear" x1="284.459" y1="115.297" x2="323.509" y2="16.8569" gradientUnits="userSpaceOnUse"><stop stop-color="#A4E9D9" stop-opacity="0"></stop><stop offset="0.4009" stop-color="#81D7CC" stop-opacity="0.26"></stop><stop offset="0.7779" stop-color="#66C9C3" stop-opacity="0.4"></stop><stop offset="1" stop-color="#5CC4BF" stop-opacity="0.41"></stop></linearGradient><linearGradient id="paint6_linear" x1="429.081" y1="131.237" x2="450.111" y2="65.9092" gradientUnits="userSpaceOnUse"><stop stop-color="#A4E9D9" stop-opacity="0"></stop><stop offset="0.4009" stop-color="#81D7CC" stop-opacity="0.1203"></stop><stop offset="0.7779" stop-color="#66C9C3" stop-opacity="0.2334"></stop><stop offset="1" stop-color="#5CC4BF" stop-opacity="0.3"></stop></linearGradient><linearGradient id="paint7_linear" x1="219.737" y1="352.196" x2="339.985" y2="352.196" gradientUnits="userSpaceOnUse"><stop offset="0.0562703" stop-color="#051937"></stop><stop offset="0.9793" stop-color="#051937" stop-opacity="0"></stop></linearGradient><linearGradient id="paint8_linear" x1="403.272" y1="195.276" x2="468.1" y2="195.276" gradientUnits="userSpaceOnUse"><stop stop-color="#A4E9D9" stop-opacity="0"></stop><stop offset="0.4009" stop-color="#81D7CC" stop-opacity="0.26"></stop><stop offset="0.7779" stop-color="#66C9C3" stop-opacity="0.4"></stop><stop offset="1" stop-color="#5CC4BF" stop-opacity="0.41"></stop></linearGradient><linearGradient id="paint9_linear" x1="400.272" y1="186.66" x2="449.12" y2="186.66" gradientUnits="userSpaceOnUse"><stop stop-color="#A4E9D9" stop-opacity="0"></stop><stop offset="0.4009" stop-color="#81D7CC" stop-opacity="0.26"></stop><stop offset="0.7779" stop-color="#66C9C3" stop-opacity="0.4"></stop><stop offset="1" stop-color="#5CC4BF" stop-opacity="0.41"></stop></linearGradient><radialGradient id="paint10_radial" cx="0" cy="0" r="1" gradientUnits="userSpaceOnUse" gradientTransform="translate(244.288 192.966) scale(166.04)"><stop stop-color="white"></stop><stop offset="0.2969" stop-color="#C9FFE0" stop-opacity="0.7889"></stop><stop offset="0.4948" stop-color="#B0FFCF" stop-opacity="0.4906"></stop><stop offset="0.6615" stop-color="#A0FFC8" stop-opacity="0.2189"></stop><stop offset="1" stop-color="#9BFFC3" stop-opacity="0"></stop></radialGradient><linearGradient id="paint11_linear" x1="386.647" y1="428.887" x2="383.837" y2="336.633" gradientUnits="userSpaceOnUse"><stop offset="0.0562703" stop-color="#051937"></stop><stop offset="0.9793" stop-color="#051937" stop-opacity="0"></stop></linearGradient><radialGradient id="paint12_radial" cx="0" cy="0" r="1" gradientUnits="userSpaceOnUse" gradientTransform="translate(-69.8078 242.782) rotate(16.2561) scale(278.64 207.733)"><stop stop-color="#88BAE1"></stop><stop offset="0.2065" stop-color="#84B6DE"></stop><stop offset="0.3982" stop-color="#79ACD3"></stop><stop offset="0.5842" stop-color="#669AC2"></stop><stop offset="0.7665" stop-color="#4C80AA"></stop><stop offset="0.9446" stop-color="#2A608B"></stop><stop offset="1" stop-color="#1E5480"></stop></radialGradient><linearGradient id="paint13_linear" x1="330.808" y1="170.347" x2="310.432" y2="180.195" gradientUnits="userSpaceOnUse"><stop stop-color="#88BAE1"></stop><stop offset="0.2065" stop-color="#84B6DE"></stop><stop offset="0.3982" stop-color="#79ACD3"></stop><stop offset="0.5842" stop-color="#669AC2"></stop><stop offset="0.7665" stop-color="#4C80AA"></stop><stop offset="0.9446" stop-color="#2A608B"></stop><stop offset="1" stop-color="#1E5480"></stop></linearGradient><linearGradient id="paint14_linear" x1="434.809" y1="146.72" x2="397.113" y2="125.664" gradientUnits="userSpaceOnUse"><stop stop-color="#88BAE1"></stop><stop offset="0.2065" stop-color="#84B6DE"></stop><stop offset="0.3982" stop-color="#79ACD3"></stop><stop offset="0.5842" stop-color="#669AC2"></stop><stop offset="0.7665" stop-color="#4C80AA"></stop><stop offset="0.9446" stop-color="#2A608B"></stop><stop offset="1" stop-color="#1E5480"></stop></linearGradient><linearGradient id="paint15_linear" x1="417.093" y1="178.439" x2="379.397" y2="157.384" gradientUnits="userSpaceOnUse"><stop stop-color="#88BAE1"></stop><stop offset="0.2065" stop-color="#84B6DE"></stop><stop offset="0.3982" stop-color="#79ACD3"></stop><stop offset="0.5842" stop-color="#669AC2"></stop><stop offset="0.7665" stop-color="#4C80AA"></stop><stop offset="0.9446" stop-color="#2A608B"></stop><stop offset="1" stop-color="#1E5480"></stop></linearGradient><linearGradient id="paint16_linear" x1="418.752" y1="172.651" x2="396.85" y2="172.651" gradientUnits="userSpaceOnUse"><stop stop-color="#88BAE1"></stop><stop offset="0.2065" stop-color="#84B6DE"></stop><stop offset="0.3982" stop-color="#79ACD3"></stop><stop offset="0.5842" stop-color="#669AC2"></stop><stop offset="0.7665" stop-color="#4C80AA"></stop><stop offset="0.9446" stop-color="#2A608B"></stop><stop offset="1" stop-color="#1E5480"></stop></linearGradient><linearGradient id="paint17_linear" x1="432.611" y1="309.698" x2="424.753" y2="348.308" gradientUnits="userSpaceOnUse"><stop offset="0.0562703" stop-color="#051937"></stop><stop offset="0.9793" stop-color="#051937" stop-opacity="0"></stop></linearGradient><radialGradient id="paint18_radial" cx="0" cy="0" r="1" gradientUnits="userSpaceOnUse" gradientTransform="translate(11.3965 133.528) scale(289.216 37.2323)"><stop stop-color="#88BAE1"></stop><stop offset="0.2065" stop-color="#84B6DE"></stop><stop offset="0.3982" stop-color="#79ACD3"></stop><stop offset="0.5842" stop-color="#669AC2"></stop><stop offset="0.7665" stop-color="#4C80AA"></stop><stop offset="0.9446" stop-color="#2A608B"></stop><stop offset="1" stop-color="#1E5480"></stop></radialGradient><linearGradient id="paint19_linear" x1="69.7002" y1="82.159" x2="169.733" y2="227.021" gradientUnits="userSpaceOnUse"><stop stop-color="#069EFC"></stop><stop offset="1" stop-color="#14F4C9"></stop></linearGradient><radialGradient id="paint20_radial" cx="0" cy="0" r="1" gradientUnits="userSpaceOnUse" gradientTransform="translate(212.788 237.532) scale(34.959)"><stop stop-color="#88BAE1"></stop><stop offset="0.2065" stop-color="#84B6DE"></stop><stop offset="0.3982" stop-color="#79ACD3"></stop><stop offset="0.5842" stop-color="#669AC2"></stop><stop offset="0.7665" stop-color="#4C80AA"></stop><stop offset="0.9446" stop-color="#2A608B"></stop><stop offset="1" stop-color="#1E5480"></stop></radialGradient><radialGradient id="paint21_radial" cx="0" cy="0" r="1" gradientUnits="userSpaceOnUse" gradientTransform="translate(174.062 199.783) scale(50.1734)"><stop stop-color="white"></stop><stop offset="0.2969" stop-color="#C9FFE0" stop-opacity="0.7889"></stop><stop offset="0.4948" stop-color="#B0FFCF" stop-opacity="0.4906"></stop><stop offset="0.6615" stop-color="#A0FFC8" stop-opacity="0.2189"></stop><stop offset="1" stop-color="#9BFFC3" stop-opacity="0"></stop></radialGradient><linearGradient id="paint22_linear" x1="457.822" y1="205.721" x2="461.503" y2="205.721" gradientUnits="userSpaceOnUse"><stop stop-color="#A4E9D9" stop-opacity="0"></stop><stop offset="0.4009" stop-color="#81D7CC" stop-opacity="0.26"></stop><stop offset="0.7779" stop-color="#66C9C3" stop-opacity="0.4"></stop><stop offset="1" stop-color="#5CC4BF" stop-opacity="0.41"></stop></linearGradient><linearGradient id="paint23_linear" x1="444.417" y1="207.317" x2="453.56" y2="207.317" gradientUnits="userSpaceOnUse"><stop stop-color="#A4E9D9" stop-opacity="0"></stop><stop offset="0.4009" stop-color="#81D7CC" stop-opacity="0.26"></stop><stop offset="0.7779" stop-color="#66C9C3" stop-opacity="0.4"></stop><stop offset="1" stop-color="#5CC4BF" stop-opacity="0.41"></stop></linearGradient><linearGradient id="paint24_linear" x1="314.304" y1="123.197" x2="371.093" y2="123.197" gradientUnits="userSpaceOnUse"><stop stop-color="#A4E9D9" stop-opacity="0"></stop><stop offset="0.4009" stop-color="#81D7CC" stop-opacity="0.26"></stop><stop offset="0.7779" stop-color="#66C9C3" stop-opacity="0.4"></stop><stop offset="1" stop-color="#5CC4BF" stop-opacity="0.41"></stop></linearGradient><linearGradient id="paint25_linear" x1="320.758" y1="111.174" x2="333.902" y2="111.174" gradientUnits="userSpaceOnUse"><stop stop-color="#A4E9D9" stop-opacity="0"></stop><stop offset="0.4009" stop-color="#81D7CC" stop-opacity="0.26"></stop><stop offset="0.7779" stop-color="#66C9C3" stop-opacity="0.4"></stop><stop offset="1" stop-color="#5CC4BF" stop-opacity="0.41"></stop></linearGradient><clipPath id="clip0"><rect width="531" height="408" fill="white" transform="translate(0.5 0.700195)"></rect></clipPath></defs></svg>