<svg width="1440" height="477" viewBox="0 0 1440 477" fill="none" xmlns="http://www.w3.org/2000/svg">
<g clip-path="url(#clip0)">
<path fill-rule="evenodd" clip-rule="evenodd" d="M135.818 511.612C105.038 455.867 110.184 386.511 139.79 329.397C166.911 277.076 221.714 247.459 279.418 234.585C332.307 222.785 384.733 236.14 430.203 264.604C479.82 295.665 533.236 335.764 534.518 394.281C535.781 451.911 479.998 489.502 435.968 527.674C392.68 565.202 348.799 607.753 291.8 604.702C227.751 601.275 166.499 567.18 135.818 511.612Z" fill="url(#paint0_radial)"/>
<g opacity="0.6" filter="url(#filter0_f)">
<path fill-rule="evenodd" clip-rule="evenodd" d="M346.783 273.696C417.945 274.737 466.044 316.772 486.456 361.811C505.21 403.192 490.314 448.785 437.802 474.53C383.664 501.072 309.932 501.041 254.854 475.357C197.315 448.526 166.371 401.972 186.677 357.426C208.375 309.829 271.543 272.596 346.783 273.696Z" fill="url(#paint1_radial)"/>
</g>
<path fill-rule="evenodd" clip-rule="evenodd" d="M1167.07 387.954C1145.45 359.551 1155.32 320.865 1175.61 291.622C1194.25 264.754 1225.9 249.098 1257.54 257.556C1290.17 266.275 1313.18 295.208 1315.18 328.922C1317.27 364.142 1299.37 398.231 1266.65 411.27C1231.69 425.203 1189.92 417.984 1167.07 387.954Z" fill="url(#paint2_radial)"/>
<g opacity="0.6" filter="url(#filter1_f)">
<path fill-rule="evenodd" clip-rule="evenodd" d="M1276.85 357.713C1262.16 368.786 1242.98 364.515 1228.76 354.966C1215.7 346.193 1208.54 330.846 1213.46 315.134C1218.53 298.936 1233.52 287.165 1250.46 285.67C1268.15 284.109 1284.85 292.406 1290.68 308.319C1296.91 325.323 1292.39 346.005 1276.85 357.713Z" fill="url(#paint3_radial)"/>
</g>
<path fill-rule="evenodd" clip-rule="evenodd" d="M1096.37 211.671C1107.03 200.961 1123.83 202.859 1137.28 209.679C1149.63 215.945 1158.02 228.315 1156.31 242.08C1154.54 256.271 1143.73 267.6 1129.7 270.389C1115.05 273.303 1099.71 267.767 1092.35 254.797C1084.48 240.938 1085.09 222.995 1096.37 211.671Z" fill="url(#paint4_radial)"/>
<g opacity="0.6" filter="url(#filter2_f)">
<path fill-rule="evenodd" clip-rule="evenodd" d="M1102.6 255.732C1094.27 247.358 1095.3 234.794 1100.13 224.918C1104.56 215.844 1113.69 209.943 1124.11 211.693C1134.85 213.496 1143.65 221.997 1146.09 232.634C1148.63 243.746 1144.82 255.089 1135.21 260.191C1124.95 265.643 1111.41 264.585 1102.6 255.732Z" fill="url(#paint5_radial)"/>
</g>
<path fill-rule="evenodd" clip-rule="evenodd" d="M647.894 343.011C669.666 343.492 684.382 362.905 690.627 383.706C696.365 402.817 691.808 423.873 675.741 435.764C659.178 448.022 636.619 448.007 619.768 436.146C602.164 423.754 592.697 402.253 598.91 381.681C605.548 359.699 624.874 342.503 647.894 343.011Z" fill="url(#paint6_radial)"/>
<path fill-rule="evenodd" clip-rule="evenodd" d="M289.766 166.421C262.33 175.929 234.923 158.497 217.46 135.398C201.415 114.176 197.334 85.7413 211.895 63.4206C226.906 40.409 255.108 29.953 281.677 36.9548C309.434 44.2694 331.25 66.7467 333.036 95.3449C334.945 125.902 318.774 156.368 289.766 166.421Z" fill="url(#paint7_radial)"/>
<g opacity="0.6" filter="url(#filter3_f)">
<path fill-rule="evenodd" clip-rule="evenodd" d="M294.218 73.8818C299.053 88.0514 290.89 101.791 279.905 110.361C269.811 118.236 256.13 119.883 245.231 112.097C233.994 104.07 228.696 89.4949 231.834 76.0224C235.112 61.9481 245.759 51.1436 259.539 50.6707C274.264 50.1655 289.107 58.9003 294.218 73.8818Z" fill="url(#paint8_radial)"/>
</g>
<path fill-rule="evenodd" clip-rule="evenodd" d="M248.925 9.89791C262.638 16.2533 266.602 32.6886 264.794 47.6526C263.133 61.4011 254.384 73.5263 240.862 76.6238C226.922 79.8172 212.58 73.54 205.159 61.3139C197.406 48.5416 197.359 32.2372 207.027 20.8798C217.357 8.74435 234.426 3.17832 248.925 9.89791Z" fill="url(#paint9_radial)"/>
<g opacity="0.6" filter="url(#filter4_f)">
<path fill-rule="evenodd" clip-rule="evenodd" d="M209.656 30.8294C214.673 20.138 226.833 16.8097 237.764 17.9627C247.806 19.0221 256.475 25.5806 258.397 35.9707C260.378 46.6823 255.402 57.8584 246.24 63.7869C236.67 69.9803 224.708 70.2813 216.626 63.0012C207.992 55.2224 204.351 42.1334 209.656 30.8294Z" fill="url(#paint10_radial)"/>
</g>
<path d="M1366.3 38.1215C1369.29 45.8155 1369.29 54.3338 1367.93 62.5773C1366.57 70.2713 1364.12 77.9652 1364.67 85.6592C1366.57 105.993 1388.05 118.358 1395.13 137.593C1400.02 151.333 1396.21 167.545 1385.88 177.712C1375.54 187.879 1358.95 190.901 1345.9 185.131C1332.03 179.361 1322.51 165.347 1308.37 159.576C1286.61 151.058 1262.13 164.797 1239.29 160.4C1217.53 156.279 1201.21 133.746 1202.03 111.489C1202.85 89.2314 1219.71 68.6226 1240.92 62.0277C1249.9 59.2799 1259.41 58.7303 1268.12 55.4329C1283.08 49.9372 1294.23 35.0989 1307.01 25.4815C1327.95 9.2692 1356.78 14.7649 1366.3 38.1215Z" fill="url(#paint11_radial)"/>
</g>
<defs>
<filter id="filter0_f" x="140.436" y="233.673" width="393.776" height="300.857" filterUnits="userSpaceOnUse" color-interpolation-filters="sRGB">
<feFlood flood-opacity="0" result="BackgroundImageFix"/>
<feBlend mode="normal" in="SourceGraphic" in2="BackgroundImageFix" result="shape"/>
<feGaussianBlur stdDeviation="20" result="effect1_foregroundBlur"/>
</filter>
<filter id="filter1_f" x="1191.9" y="265.484" width="121.484" height="118.807" filterUnits="userSpaceOnUse" color-interpolation-filters="sRGB">
<feFlood flood-opacity="0" result="BackgroundImageFix"/>
<feBlend mode="normal" in="SourceGraphic" in2="BackgroundImageFix" result="shape"/>
<feGaussianBlur stdDeviation="10" result="effect1_foregroundBlur"/>
</filter>
<filter id="filter2_f" x="1076.42" y="191.386" width="90.4384" height="92.1406" filterUnits="userSpaceOnUse" color-interpolation-filters="sRGB">
<feFlood flood-opacity="0" result="BackgroundImageFix"/>
<feBlend mode="normal" in="SourceGraphic" in2="BackgroundImageFix" result="shape"/>
<feGaussianBlur stdDeviation="10" result="effect1_foregroundBlur"/>
</filter>
<filter id="filter3_f" x="210.942" y="30.6499" width="104.699" height="106.52" filterUnits="userSpaceOnUse" color-interpolation-filters="sRGB">
<feFlood flood-opacity="0" result="BackgroundImageFix"/>
<feBlend mode="normal" in="SourceGraphic" in2="BackgroundImageFix" result="shape"/>
<feGaussianBlur stdDeviation="10" result="effect1_foregroundBlur"/>
</filter>
<filter id="filter4_f" x="187.182" y="-2.25403" width="91.6466" height="90.7022" filterUnits="userSpaceOnUse" color-interpolation-filters="sRGB">
<feFlood flood-opacity="0" result="BackgroundImageFix"/>
<feBlend mode="normal" in="SourceGraphic" in2="BackgroundImageFix" result="shape"/>
<feGaussianBlur stdDeviation="10" result="effect1_foregroundBlur"/>
</filter>
<radialGradient id="paint0_radial" cx="0" cy="0" r="1" gradientUnits="userSpaceOnUse" gradientTransform="translate(180.789 672.3) rotate(-84.1337) scale(371.307 370.398)">
<stop stop-color="#6BFFE8"/>
<stop offset="0.0474436" stop-color="#68F8E5"/>
<stop offset="0.5011" stop-color="#49B6C8"/>
<stop offset="0.8307" stop-color="#358DB6"/>
<stop offset="1" stop-color="#2E7DAF"/>
</radialGradient>
<radialGradient id="paint1_radial" cx="0" cy="0" r="1" gradientUnits="userSpaceOnUse" gradientTransform="translate(337.324 384.101) scale(156.888 110.429)">
<stop stop-color="#4DCCD5"/>
<stop offset="1" stop-color="#16B1BB"/>
</radialGradient>
<radialGradient id="paint2_radial" cx="0" cy="0" r="1" gradientUnits="userSpaceOnUse" gradientTransform="translate(1204.09 458.783) rotate(-96.3184) scale(158.489 152.612)">
<stop stop-color="#6BFFE8"/>
<stop offset="0.0474436" stop-color="#68F8E5"/>
<stop offset="0.5011" stop-color="#49B6C8"/>
<stop offset="0.8307" stop-color="#358DB6"/>
<stop offset="1" stop-color="#2E7DAF"/>
</radialGradient>
<radialGradient id="paint3_radial" cx="0" cy="0" r="1" gradientUnits="userSpaceOnUse" gradientTransform="translate(1254.1 324.801) rotate(141.834) scale(40.562 39.9474)">
<stop stop-color="#4DCCD5"/>
<stop offset="1" stop-color="#16B1BB"/>
</radialGradient>
<radialGradient id="paint4_radial" cx="0" cy="0" r="1" gradientUnits="userSpaceOnUse" gradientTransform="translate(1068.8 231.301) rotate(-14.1725) scale(67.1164 64.6278)">
<stop stop-color="#6BFFE8"/>
<stop offset="0.0474436" stop-color="#68F8E5"/>
<stop offset="0.5011" stop-color="#49B6C8"/>
<stop offset="0.8307" stop-color="#358DB6"/>
<stop offset="1" stop-color="#2E7DAF"/>
</radialGradient>
<radialGradient id="paint5_radial" cx="0" cy="0" r="1" gradientUnits="userSpaceOnUse" gradientTransform="translate(1121.53 238.377) rotate(-136.02) scale(26.0319 25.6375)">
<stop stop-color="#4DCCD5"/>
<stop offset="1" stop-color="#16B1BB"/>
</radialGradient>
<radialGradient id="paint6_radial" cx="0" cy="0" r="1" gradientUnits="userSpaceOnUse" gradientTransform="translate(600.014 333.758) rotate(32.2156) scale(96.7061 93.1204)">
<stop stop-color="#6BFFE8"/>
<stop offset="0.0474436" stop-color="#68F8E5"/>
<stop offset="0.5011" stop-color="#49B6C8"/>
<stop offset="0.8307" stop-color="#358DB6"/>
<stop offset="1" stop-color="#2E7DAF"/>
</radialGradient>
<radialGradient id="paint7_radial" cx="0" cy="0" r="1" gradientUnits="userSpaceOnUse" gradientTransform="translate(353.907 155.755) rotate(-168.163) scale(128.942 124.161)">
<stop stop-color="#6BFFE8"/>
<stop offset="0.0474436" stop-color="#68F8E5"/>
<stop offset="0.5011" stop-color="#49B6C8"/>
<stop offset="0.8307" stop-color="#358DB6"/>
<stop offset="1" stop-color="#2E7DAF"/>
</radialGradient>
<radialGradient id="paint8_radial" cx="0" cy="0" r="1" gradientUnits="userSpaceOnUse" gradientTransform="translate(263.006 83.1314) rotate(69.9891) scale(33 32.5)">
<stop stop-color="#4DCCD5"/>
<stop offset="1" stop-color="#16B1BB"/>
</radialGradient>
<radialGradient id="paint9_radial" cx="0" cy="0" r="1" gradientUnits="userSpaceOnUse" gradientTransform="translate(221.045 -9.29083) rotate(55.8166) scale(67.1164 64.6278)">
<stop stop-color="#6BFFE8"/>
<stop offset="0.0474436" stop-color="#68F8E5"/>
<stop offset="0.5011" stop-color="#49B6C8"/>
<stop offset="0.8307" stop-color="#358DB6"/>
<stop offset="1" stop-color="#2E7DAF"/>
</radialGradient>
<radialGradient id="paint10_radial" cx="0" cy="0" r="1" gradientUnits="userSpaceOnUse" gradientTransform="translate(232.44 42.6762) rotate(-66.0312) scale(26.0319 25.6375)">
<stop stop-color="#4DCCD5"/>
<stop offset="1" stop-color="#16B1BB"/>
</radialGradient>
<radialGradient id="paint11_radial" cx="0" cy="0" r="1" gradientUnits="userSpaceOnUse" gradientTransform="translate(1208.13 0.619395) scale(200.712 176.657)">
<stop stop-color="#6BFFE8"/>
<stop offset="0.0474436" stop-color="#68F8E5"/>
<stop offset="0.5011" stop-color="#49B6C8"/>
<stop offset="0.8307" stop-color="#358DB6"/>
<stop offset="1" stop-color="#2E7DAF"/>
</radialGradient>
<clipPath id="clip0">
<rect width="1441" height="683" fill="white"/>
</clipPath>
</defs>
</svg>
